<svg class="animate-scale-fade-in h-8 w-60 text-white" viewBox="-0.0507 -3.5449 1033.73 132.102" width="157" height="20" xmlns="http://www.w3.org/2000/svg"><path d="M 1743.279 426.374 L 1775.139 426.374 C 1784.449 426.374 1791.669 429.238 1796.799 434.966 C 1802.049 440.694 1804.679 447.973 1804.679 456.804 C 1804.679 461.219 1803.839 466.052 1802.169 471.303 C 1798.589 482.282 1793.039 490.635 1785.519 496.363 C 1778.009 502.091 1768.819 504.955 1757.959 504.955 L 1744.709 504.955 L 1728.599 553.464 L 1700.319 553.464 L 1743.279 426.374 Z M 1759.749 483.654 C 1763.449 483.654 1766.729 482.162 1769.589 479.179 C 1772.579 476.076 1774.779 472.079 1776.219 467.186 C 1777.169 463.725 1777.649 460.742 1777.649 458.236 C 1777.649 455.014 1776.929 452.448 1775.499 450.539 C 1774.189 448.63 1772.099 447.675 1769.239 447.675 L 1763.689 447.675 L 1751.869 483.654 L 1759.749 483.654 Z" fill="white" transform="matrix(1, 0, 0, 1, -770.9996337890626, -427.41290283203125)"></path><path d="M 1704.239 519.991 C 1699.939 532.64 1694.159 541.829 1686.879 547.557 C 1679.719 553.166 1671.009 555.97 1660.739 555.97 C 1652.029 555.97 1644.689 553.524 1638.729 548.631 C 1632.879 543.619 1629.949 536.638 1629.949 527.688 C 1629.949 522.915 1630.909 517.664 1632.819 511.936 L 1661.279 426.374 L 1689.559 426.374 L 1658.769 518.559 C 1657.819 521.662 1657.339 524.168 1657.339 526.077 C 1657.339 528.344 1657.819 530.135 1658.769 531.447 C 1659.849 532.76 1661.399 533.416 1663.429 533.416 C 1666.409 533.416 1668.919 532.163 1670.949 529.657 C 1672.969 527.032 1674.759 523.333 1676.319 518.559 L 1707.099 426.374 L 1735.389 426.374 L 1704.239 519.991 Z" fill="white" transform="matrix(1, 0, 0, 1, -770.9996337890626, -427.41290283203125)"></path><path d="M 1578.469 555.791 C 1568.089 555.791 1560.509 552.808 1555.739 546.841 C 1550.959 540.755 1548.579 532.461 1548.579 521.96 C 1548.579 510.981 1550.959 498.213 1555.739 483.654 C 1562.059 463.964 1569.879 449.107 1579.179 439.083 C 1588.489 429.059 1598.759 424.047 1609.969 424.047 C 1620.349 424.047 1627.929 427.09 1632.709 433.176 C 1637.479 439.143 1639.869 447.377 1639.869 457.878 C 1639.869 468.857 1637.479 481.625 1632.709 496.184 C 1626.379 515.874 1618.559 530.731 1609.259 540.755 C 1599.949 550.779 1589.689 555.791 1578.469 555.791 Z M 1581.329 533.058 C 1584.549 533.058 1587.959 530.015 1591.539 523.929 C 1595.239 517.843 1599.589 507.043 1604.599 491.53 C 1610.089 474.823 1612.839 462.95 1612.839 455.909 C 1612.839 449.823 1610.929 446.78 1607.109 446.78 C 1603.889 446.78 1600.429 449.823 1596.729 455.909 C 1593.149 461.995 1588.849 472.795 1583.839 488.308 C 1578.349 504.776 1575.599 516.65 1575.599 523.929 C 1575.599 530.015 1577.509 533.058 1581.329 533.058 Z" fill="white" transform="matrix(1, 0, 0, 1, -770.9996337890626, -427.41290283203125)"></path><path d="M 1529.529 426.374 C 1538.599 426.374 1545.699 429.178 1550.829 434.787 C 1555.959 440.396 1558.529 447.496 1558.529 456.088 C 1558.529 460.503 1557.689 465.336 1556.019 470.587 C 1550.889 486.458 1541.699 496.661 1528.449 501.196 L 1529.889 553.464 L 1502.319 553.464 L 1502.859 503.702 L 1499.279 503.702 L 1482.809 553.464 L 1455.239 553.464 L 1497.489 426.374 L 1529.529 426.374 Z M 1513.059 482.938 C 1517.239 482.938 1520.819 481.506 1523.799 478.642 C 1526.899 475.659 1529.109 471.78 1530.419 467.007 C 1531.259 463.427 1531.679 460.503 1531.679 458.236 C 1531.679 455.014 1530.959 452.448 1529.529 450.539 C 1528.219 448.63 1526.189 447.675 1523.439 447.675 L 1517.889 447.675 L 1506.079 482.938 L 1513.059 482.938 Z" fill="white" transform="matrix(1, 0, 0, 1, -770.9996337890626, -427.41290283203125)"></path><path d="M 1433.589 481.506 L 1472.259 481.506 L 1448.269 553.464 L 1428.039 553.464 L 1429.829 543.261 C 1426.609 547.199 1423.329 550.063 1419.989 551.853 C 1416.769 553.524 1413.009 554.359 1408.709 554.359 C 1401.309 554.359 1395.819 551.674 1392.239 546.304 C 1388.779 540.815 1387.049 533.297 1387.049 523.75 C 1387.049 512.294 1389.499 498.929 1394.389 483.654 C 1407.399 443.797 1425.779 423.868 1449.519 423.868 C 1459.189 423.868 1466.469 426.971 1471.359 433.176 C 1476.369 439.262 1479.179 447.257 1479.769 457.162 L 1454.529 465.575 C 1454.059 458.654 1453.159 453.821 1451.849 451.076 C 1450.659 448.331 1448.989 446.959 1446.839 446.959 C 1443.019 446.959 1439.259 449.942 1435.559 455.909 C 1431.979 461.876 1427.629 472.675 1422.489 488.308 C 1417.599 503.344 1415.149 514.8 1415.149 522.676 C 1415.149 529.239 1416.939 532.521 1420.519 532.521 C 1424.099 532.521 1427.449 530.075 1430.549 525.182 C 1433.649 520.289 1436.399 514.263 1438.779 507.103 L 1439.319 505.492 L 1425.719 505.492 L 1433.589 481.506 Z" fill="white" transform="matrix(1, 0, 0, 1, -770.9996337890626, -427.41290283203125)"></path><path d="M 1311.541 555.791 C 1301.159 555.791 1293.581 552.808 1288.808 546.841 C 1284.035 540.755 1281.648 532.461 1281.648 521.96 C 1281.648 510.981 1284.035 498.213 1288.808 483.654 C 1295.133 463.964 1302.949 449.107 1312.257 439.083 C 1321.565 429.059 1331.828 424.047 1343.049 424.047 C 1353.429 424.047 1361.009 427.09 1365.779 433.176 C 1370.549 439.143 1372.939 447.377 1372.939 457.878 C 1372.939 468.857 1370.549 481.625 1365.779 496.184 C 1359.449 515.874 1351.639 530.731 1342.329 540.755 C 1333.021 550.779 1322.758 555.791 1311.541 555.791 Z M 1314.405 533.058 C 1317.627 533.058 1321.028 530.015 1324.608 523.929 C 1328.307 517.843 1332.663 507.043 1337.675 491.53 C 1343.169 474.823 1345.909 462.95 1345.909 455.909 C 1345.909 449.823 1343.999 446.78 1340.179 446.78 C 1336.959 446.78 1333.498 449.823 1329.799 455.909 C 1326.219 461.995 1321.923 472.795 1316.911 488.308 C 1311.422 504.776 1308.677 516.65 1308.677 523.929 C 1308.677 530.015 1310.586 533.058 1314.405 533.058 Z" fill="white" transform="matrix(1, 0, 0, 1, -770.9996337890626, -427.41290283203125)"></path><path d="M 1245.676 481.506 L 1284.34 481.506 L 1260.354 553.464 L 1240.127 553.464 L 1241.917 543.261 C 1238.695 547.199 1235.413 550.063 1232.072 551.853 C 1228.85 553.524 1225.091 554.359 1220.795 554.359 C 1213.396 554.359 1207.907 551.674 1204.327 546.304 C 1200.866 540.815 1199.136 533.297 1199.136 523.75 C 1199.136 512.294 1201.582 498.929 1206.475 483.654 C 1219.482 443.797 1237.86 423.868 1261.607 423.868 C 1271.273 423.868 1278.552 426.971 1283.445 433.176 C 1288.457 439.262 1291.261 447.257 1291.858 457.162 L 1266.619 465.575 C 1266.142 458.654 1265.247 453.821 1263.934 451.076 C 1262.741 448.331 1261.07 446.959 1258.922 446.959 C 1255.103 446.959 1251.344 449.942 1247.645 455.909 C 1244.065 461.876 1239.709 472.675 1234.578 488.308 C 1229.685 503.344 1227.239 514.8 1227.239 522.676 C 1227.239 529.239 1229.029 532.521 1232.609 532.521 C 1236.189 532.521 1239.53 530.075 1242.633 525.182 C 1245.736 520.289 1248.48 514.263 1250.867 507.103 L 1251.404 505.492 L 1237.8 505.492 L 1245.676 481.506 Z" fill="white" transform="matrix(1, 0, 0, 1, -770.9996337890626, -427.41290283203125)"></path><path d="M 1168.763 504.239 C 1169.002 503.404 1169.539 501.494 1170.374 498.511 C 1171.329 495.528 1172.343 492.544 1173.417 489.561 L 1194.181 426.374 L 1220.136 426.374 L 1177.892 553.464 L 1147.82 553.464 L 1151.758 487.771 C 1151.997 483.475 1152.236 480.074 1152.474 477.568 C 1152.713 474.943 1152.892 473.212 1153.011 472.377 C 1152.773 473.212 1152.176 475.122 1151.221 478.105 C 1150.386 481.088 1149.431 484.072 1148.357 487.055 L 1126.519 553.464 L 1100.564 553.464 L 1142.808 426.374 L 1173.596 426.374 L 1169.837 488.845 L 1168.763 504.239 Z" fill="white" transform="matrix(1, 0, 0, 1, -770.9996337890626, -427.41290283203125)"></path><path d="M 1116.357 426.374 L 1097.92 553.464 L 1070.712 553.464 L 1074.65 530.552 L 1051.917 530.552 L 1041.177 553.464 L 1012.358 553.464 L 1078.23 426.374 L 1116.357 426.374 Z M 1078.946 506.566 L 1085.927 466.828 L 1088.791 451.613 C 1086.404 457.46 1084.316 462.174 1082.526 465.754 L 1063.373 506.566 L 1078.946 506.566 Z" fill="white" transform="matrix(1, 0, 0, 1, -770.9996337890626, -427.41290283203125)"></path><path d="M 1014.668 458.057 C 1014.191 466.052 1013.773 471.184 1013.415 473.451 C 1014.847 470.11 1017.174 465.515 1020.396 459.668 L 1038.475 426.374 L 1070.158 426.374 L 1015.384 510.325 L 1001.064 553.464 L 972.782 553.464 L 987.818 508.177 L 988.176 426.374 L 1016.1 426.374 L 1014.668 458.057 Z" fill="white" transform="matrix(1, 0, 0, 1, -770.9996337890626, -427.41290283203125)"></path><g transform="matrix(1, 0, 0, 1, -431.05072021484375, -450.94900131225586)"><path d="M588.696 451H556.858C544.346 451 533.235 459.049 529.291 470.967L522.116 492.579C518.244 504.325 511.494 512.547 493.644 512.547C477.73 512.547 475.242 507.305 478.996 495.958L486.858 472.421C490.794 460.529 483.674 451 473.767 451H468.601C456.079 451 444.969 459.049 441.024 470.967L431.995 498.32C428.874 507.759 432.646 517.507 449.493 517.507C462.991 517.507 464.285 522.321 460.413 534.022L453.6 554.607C449.185 567.952 456.423 577 466.33 577H482.588C495.101 577 506.211 568.951 510.155 557.033L516.651 537.483C520.623 525.474 529.128 517.516 544.219 517.516H565.869C578.382 517.516 589.492 509.467 593.437 497.548L601.905 472.003C605.804 460.221 598.585 451.009 588.678 451.009L588.696 451Z" fill="white"></path></g></svg>